<svg version="1.1" id="Layer_1" xmlns="http://www.w3.org/2000/svg" xmlns:xlink="http://www.w3.org/1999/xlink" x="0px" y="0px"
	 width="100%" viewBox="0 0 512 512" enable-background="new 0 0 512 512" xml:space="preserve">
<path fill="#000000" opacity="1.000000" stroke="none" 
	d="
M146.000000,513.000000 
	C97.695602,513.000000 49.391209,513.000000 1.053168,513.000000 
	C1.053168,342.333344 1.053168,171.666656 1.053168,1.000000 
	C25.425117,1.000000 49.743900,1.000000 74.470230,1.337838 
	C74.443008,2.158823 74.100609,2.823712 73.559937,3.098490 
	C60.564140,9.703239 55.994888,20.944223 55.995659,34.761036 
	C56.002716,161.064804 56.017754,287.368591 55.937778,413.672333 
	C55.934395,419.014526 57.449856,423.115967 61.332088,426.961914 
	C88.439651,453.816345 115.373901,480.845917 142.311737,507.871124 
	C143.779251,509.343414 144.781296,511.279694 146.000000,513.000000 
z"/>
<path fill="#000000" opacity="1.000000" stroke="none" 
	d="
M439.000000,1.000003 
	C463.650299,1.000000 488.300629,1.000000 512.947693,1.000003 
	C512.944458,171.666672 512.944458,342.333344 512.944458,513.000000 
	C488.571686,513.000000 464.254486,513.000000 439.529846,512.662231 
	C439.417175,511.932129 439.626434,511.369751 440.019196,511.172058 
	C454.042389,504.114014 458.087799,491.976196 458.060974,477.255615 
	C457.927460,403.970856 458.000031,330.685699 458.000000,257.400696 
	C457.999969,182.949768 458.014740,108.498840 457.983337,34.047935 
	C457.978790,23.282255 455.024597,13.696507 446.178955,6.699939 
	C443.782440,4.804424 441.392792,2.900222 439.000000,1.000003 
z"/>
<path fill="#041A39" opacity="1.000000" stroke="none" 
	d="
M438.531342,1.000003 
	C441.392792,2.900222 443.782440,4.804424 446.178955,6.699939 
	C455.024597,13.696507 457.978790,23.282255 457.983337,34.047935 
	C458.014740,108.498840 457.999969,182.949768 458.000000,257.400696 
	C458.000031,330.685699 457.927460,403.970856 458.060974,477.255615 
	C458.087799,491.976196 454.042389,504.114014 440.019196,511.172058 
	C439.626434,511.369751 439.417175,511.932129 439.061188,512.662231 
	C341.645782,513.000000 244.291550,513.000000 146.468658,513.000000 
	C144.781296,511.279694 143.779251,509.343414 142.311737,507.871124 
	C115.373901,480.845917 88.439651,453.816345 61.332088,426.961914 
	C57.449856,423.115967 55.934395,419.014526 55.937778,413.672333 
	C56.017754,287.368591 56.002716,161.064804 55.995659,34.761036 
	C55.994888,20.944223 60.564140,9.703239 73.559937,3.098490 
	C74.100609,2.823712 74.443008,2.158823 74.938889,1.337838 
	C196.020889,1.000000 317.041779,1.000000 438.531342,1.000003 
M67.262230,39.531475 
	C67.262230,164.298492 67.262230,289.065521 67.262230,413.843231 
	C86.814407,413.843231 105.717140,413.843231 124.938629,413.843231 
	C124.938629,404.201416 124.919662,394.895172 124.945229,385.589111 
	C124.962494,379.307404 126.282433,377.977875 132.547867,377.971375 
	C150.713379,377.952576 168.878906,377.960602 187.044434,377.966705 
	C194.382370,377.969177 195.509445,379.048157 195.518494,386.282806 
	C195.540787,404.114990 195.534561,421.947235 195.521255,439.779449 
	C195.515472,447.540771 194.309586,448.734955 186.523575,448.745331 
	C176.406693,448.758850 166.289780,448.748627 155.937073,448.748627 
	C155.937073,466.855469 155.937073,484.438751 155.937073,502.562744 
	C157.971542,502.562744 159.767899,502.562714 161.564240,502.562714 
	C249.225403,502.562592 336.886566,502.566467 424.547729,502.558502 
	C439.637299,502.557129 446.735046,495.362305 446.735443,480.094055 
	C446.739319,331.436737 446.738861,182.779404 446.735992,34.122070 
	C446.735687,18.513556 439.733521,11.440125 424.273773,11.439562 
	C312.780762,11.435495 201.287781,11.435578 89.794777,11.450675 
	C87.634697,11.450968 85.451408,11.485319 83.318726,11.785955 
	C75.336006,12.911253 69.173424,18.634899 67.866142,26.601633 
	C67.224701,30.510733 67.436562,34.559853 67.262230,39.531475 
M104.500061,424.822876 
	C95.006523,424.822876 85.512985,424.822876 76.336220,424.822876 
	C99.412537,447.890411 122.163399,470.632599 144.857605,493.318176 
	C144.843994,493.365906 145.072449,492.938232 145.072632,492.510437 
	C145.080002,475.880096 145.241165,459.247131 144.989334,442.620453 
	C144.841751,432.876099 136.792770,425.161682 126.952103,424.890198 
	C119.806244,424.693024 112.651070,424.833130 104.500061,424.822876 
M185.039932,434.348206 
	C185.039932,419.103485 185.039932,403.858765 185.039932,388.625183 
	C168.111542,388.625183 151.895950,388.625183 135.253098,388.625183 
	C135.253098,393.963409 135.604584,398.961273 135.169693,403.889771 
	C134.536850,411.061707 135.330048,416.478241 143.158218,420.103027 
	C150.105408,423.319916 153.223648,430.759552 155.333694,438.125641 
	C164.536194,438.125641 173.356720,438.213043 182.170135,438.002380 
	C183.146652,437.979065 184.082520,436.254486 185.039932,434.348206 
z"/>
<path fill="#FCD37F" opacity="1.000000" stroke="none" 
	d="
M67.262238,39.038536 
	C67.436562,34.559853 67.224701,30.510733 67.866142,26.601633 
	C69.173424,18.634899 75.336006,12.911253 83.318726,11.785955 
	C85.451408,11.485319 87.634697,11.450968 89.794777,11.450675 
	C201.287781,11.435578 312.780762,11.435495 424.273773,11.439562 
	C439.733521,11.440125 446.735687,18.513556 446.735992,34.122070 
	C446.738861,182.779404 446.739319,331.436737 446.735443,480.094055 
	C446.735046,495.362305 439.637299,502.557129 424.547729,502.558502 
	C336.886566,502.566467 249.225403,502.562592 161.564240,502.562714 
	C159.767899,502.562714 157.971542,502.562744 155.937073,502.562744 
	C155.937073,484.438751 155.937073,466.855469 155.937073,448.748627 
	C166.289780,448.748627 176.406693,448.758850 186.523575,448.745331 
	C194.309586,448.734955 195.515472,447.540771 195.521255,439.779449 
	C195.534561,421.947235 195.540787,404.114990 195.518494,386.282806 
	C195.509445,379.048157 194.382370,377.969177 187.044434,377.966705 
	C168.878906,377.960602 150.713379,377.952576 132.547867,377.971375 
	C126.282433,377.977875 124.962494,379.307404 124.945229,385.589111 
	C124.919662,394.895172 124.938629,404.201416 124.938629,413.843231 
	C105.717140,413.843231 86.814407,413.843231 67.262230,413.843231 
	C67.262230,289.065521 67.262230,164.298492 67.262238,39.038536 
M125.712440,348.408417 
	C127.577950,349.264191 129.436615,350.846100 131.310013,350.863708 
	C150.622772,351.045441 169.937912,350.964539 189.252365,350.981445 
	C193.340897,350.985016 195.564636,348.945007 195.577225,344.930542 
	C195.638870,325.283478 195.631012,305.636017 195.566956,285.988922 
	C195.555527,282.481537 193.598236,280.201416 190.034363,280.184479 
	C170.221115,280.090210 150.406998,280.090088 130.593674,280.173706 
	C127.144623,280.188263 124.912193,282.072113 124.926247,285.767700 
	C125.004707,306.403320 125.130630,327.038727 125.712440,348.408417 
M149.501068,182.552719 
	C143.836395,182.553101 138.171249,182.508392 132.507156,182.565872 
	C126.146339,182.630417 124.923294,183.866272 124.915657,190.236420 
	C124.893700,208.563293 124.897934,226.890228 124.912697,245.217117 
	C124.918167,252.010666 126.029366,253.169128 132.653931,253.177551 
	C150.980804,253.200821 169.307739,253.198151 187.634628,253.178192 
	C194.242630,253.170990 195.580292,251.883179 195.593765,245.326172 
	C195.631058,227.165955 195.623581,209.005585 195.598129,190.845337 
	C195.588348,183.872803 194.330688,182.585052 187.487747,182.564209 
	C175.158844,182.526627 162.829773,182.553070 149.501068,182.552719 
M224.945099,114.564522 
	C217.182602,101.188507 209.404831,87.821312 201.670227,74.429192 
	C200.084122,71.682915 198.285843,69.202950 194.663925,70.173759 
	C191.010300,71.153046 190.814056,74.217339 190.819260,77.383400 
	C190.856812,100.201683 190.858383,123.020081 190.819870,145.838364 
	C190.813736,149.470795 191.294739,152.862228 195.785889,152.966461 
	C200.585190,153.077850 201.171936,149.592728 201.158722,145.733734 
	C201.106262,130.410645 201.130722,115.087265 201.150635,99.764023 
	C201.152145,98.598091 201.340744,97.432396 201.528564,95.277748 
	C203.035736,97.762543 204.003021,99.299171 204.914185,100.868370 
	C214.266388,116.974556 223.622284,133.078629 232.942581,149.203278 
	C234.494598,151.888321 236.724075,154.249741 239.666626,152.634827 
	C241.508270,151.624115 242.939087,148.689499 243.298691,146.419250 
	C243.890686,142.681717 243.467392,138.782944 243.467590,134.952148 
	C243.468552,116.797409 243.468094,98.642670 243.467850,80.487930 
	C243.467834,79.322029 243.460449,78.156120 243.464828,76.990234 
	C243.478516,73.348312 242.725616,70.009987 238.251541,70.049728 
	C233.899292,70.088371 232.982239,73.232132 232.993530,76.980164 
	C233.040176,92.469841 233.020416,107.959763 232.997589,123.449554 
	C232.995895,124.592445 232.776642,125.735008 232.578827,127.648903 
	C229.821594,122.956490 227.548157,119.087410 224.945099,114.564522 
M321.845062,143.631821 
	C330.156494,151.749588 340.044098,154.114014 349.623688,149.845886 
	C359.995667,145.224731 364.770203,136.835892 364.822601,125.645592 
	C364.873230,114.829552 364.910767,104.012405 364.814148,93.196991 
	C364.681732,78.373955 354.088165,67.286880 340.166138,67.240982 
	C326.275635,67.195190 315.697968,78.179611 315.499786,93.099075 
	C315.353912,104.079811 315.476868,115.064049 315.467957,126.046715 
	C315.462799,132.414093 317.135101,138.194412 321.845062,143.631821 
M300.499969,302.899963 
	C326.829834,302.899963 353.159668,302.900970 379.489532,302.897339 
	C380.988647,302.897156 382.861237,303.417633 383.906494,302.718597 
	C385.877411,301.400513 388.659607,299.398376 388.698792,297.627350 
	C388.737305,295.886627 385.967896,293.845062 384.072479,292.407867 
	C383.213593,291.756653 381.488800,292.223694 380.156830,292.223602 
	C329.996796,292.219604 279.836761,292.218048 229.676712,292.230194 
	C228.017136,292.230591 225.976791,291.802948 224.788620,292.591492 
	C223.071472,293.731079 220.927231,295.785767 220.902069,297.478851 
	C220.876785,299.180054 222.943726,301.315552 224.628738,302.499298 
	C225.780777,303.308655 227.849945,302.887421 229.509201,302.888611 
	C252.839432,302.905243 276.169678,302.899933 300.499969,302.899963 
M323.500000,205.074371 
	C340.983521,205.074371 358.467072,205.075912 375.950592,205.072739 
	C378.614563,205.072250 381.516144,205.700378 383.870575,204.840485 
	C385.912079,204.094849 388.296265,201.895645 388.801849,199.901108 
	C389.546417,196.963608 387.248718,195.056168 384.096588,194.809998 
	C382.937256,194.719452 381.766998,194.755249 380.601746,194.755203 
	C330.149261,194.753174 279.696747,194.752380 229.244247,194.759613 
	C227.748093,194.759827 225.866791,194.299255 224.842926,195.018494 
	C223.160782,196.200150 220.981766,198.164001 220.967117,199.815369 
	C220.952194,201.501862 223.013153,203.618851 224.697449,204.766281 
	C225.858551,205.557281 227.925400,205.066742 229.587479,205.067261 
	C260.558319,205.076950 291.529175,205.074371 323.500000,205.074371 
M385.617889,390.301453 
	C383.628265,390.201965 381.638672,390.016235 379.649017,390.015594 
	C329.841370,389.999542 280.033752,389.991852 230.226120,390.023895 
	C226.204269,390.026459 221.267593,388.888824 220.723648,395.151581 
	C220.383026,399.073242 222.992996,400.429901 230.116516,400.430267 
	C279.924164,400.432983 329.731781,400.431824 379.539429,400.431091 
	C380.705475,400.431061 382.015717,400.763275 383.007202,400.344727 
	C385.006317,399.500824 388.004364,398.575256 388.425476,397.075470 
	C388.925171,395.295776 387.145233,392.875977 385.617889,390.301453 
M296.163666,116.823524 
	C297.162628,116.814774 298.166595,116.867226 299.159637,116.786079 
	C302.439606,116.518013 304.621674,114.754211 304.586823,111.451065 
	C304.551788,108.130745 302.273346,106.445854 299.023682,106.227989 
	C297.365417,106.116814 295.694977,106.178230 294.030029,106.177567 
	C285.580170,106.174171 277.130341,106.176010 268.556641,106.176010 
	C268.556641,97.312157 268.556641,88.955360 268.556641,80.252594 
	C278.577026,80.252594 288.213043,80.197792 297.847900,80.280800 
	C301.470093,80.312004 304.447998,79.233109 304.539825,75.293755 
	C304.638031,71.082924 301.653076,69.852448 297.771454,69.886803 
	C287.115295,69.981140 276.457672,69.903603 265.800690,69.922997 
	C259.081268,69.935219 257.878204,71.102112 257.872803,77.703323 
	C257.854706,99.849953 257.864014,121.996605 257.866974,144.143250 
	C257.867859,150.742081 259.287598,153.312637 263.110535,152.997925 
	C269.069977,152.507355 268.129578,147.849487 268.151794,143.946075 
	C268.202698,135.012924 268.167877,126.079285 268.167877,116.823868 
	C277.623535,116.823868 286.430969,116.823868 296.163666,116.823524 
M315.499969,338.903351 
	C325.983307,338.903168 336.466858,338.867340 346.949921,338.921539 
	C350.757874,338.941223 353.856781,337.736359 353.831116,333.538818 
	C353.805084,329.281525 350.551025,328.208099 346.824982,328.294128 
	C346.159729,328.309479 345.493835,328.295258 344.828217,328.295258 
	C306.389282,328.295288 267.950348,328.293640 229.511414,328.301758 
	C228.017487,328.302094 226.116241,327.839600 225.118820,328.569061 
	C223.327789,329.879028 220.907578,331.948242 220.932587,333.668518 
	C220.957840,335.405853 223.411896,337.418060 225.232391,338.697235 
	C226.247101,339.410248 228.138474,338.899414 229.634766,338.899658 
	C257.923157,338.904480 286.211548,338.903290 315.499969,338.903351 
M294.500092,230.822403 
	C272.355377,230.822586 250.210587,230.849319 228.065994,230.797577 
	C224.242874,230.788635 220.693054,231.186569 220.746201,236.036179 
	C220.795181,240.504654 224.080551,241.101852 227.773117,241.098160 
	C267.400452,241.058578 307.027863,241.053497 346.655151,241.107803 
	C350.394928,241.112930 353.696869,240.352859 353.781494,236.075348 
	C353.874207,231.389496 350.332977,230.773895 346.449463,230.790802 
	C329.466644,230.864746 312.483276,230.822495 294.500092,230.822403 
M352.773895,434.492584 
	C354.992279,428.719269 352.984619,426.046600 346.295074,426.043701 
	C306.969910,426.026550 267.644775,426.033417 228.319611,426.045013 
	C226.992386,426.045410 225.195282,425.668945 224.436371,426.363403 
	C222.882370,427.785248 221.013397,429.778564 220.934494,431.608215 
	C220.870895,433.082336 223.047440,434.933990 224.618942,436.089172 
	C225.518936,436.750732 227.195175,436.426544 228.521988,436.426971 
	C267.680511,436.439819 306.839050,436.458405 345.997406,436.379547 
	C348.052521,436.375397 350.105896,435.523468 352.773895,434.492584 
M176.402664,140.452927 
	C176.402557,120.001534 176.407227,99.550148 176.393372,79.098763 
	C176.392258,77.440109 176.827545,75.426743 176.059967,74.208160 
	C174.976547,72.488182 172.973434,70.288185 171.338150,70.267181 
	C169.635468,70.245308 167.711304,72.392769 166.273834,73.951279 
	C165.668320,74.607773 166.009995,76.186005 166.009460,77.345276 
	C165.999100,100.124466 166.001328,122.903656 166.003479,145.682846 
	C166.003555,146.513870 165.683640,147.661636 166.103821,148.119797 
	C167.718689,149.880585 169.429138,152.418640 171.389740,152.704163 
	C172.779266,152.906509 175.279907,150.232117 176.092758,148.331985 
	C176.940491,146.350327 176.359192,143.757324 176.402664,140.452927 
z"/>
<path fill="#FED480" opacity="1.000000" stroke="none" 
	d="
M105.000061,424.822876 
	C112.651070,424.833130 119.806244,424.693024 126.952103,424.890198 
	C136.792770,425.161682 144.841751,432.876099 144.989334,442.620453 
	C145.241165,459.247131 145.080002,475.880096 145.072632,492.510437 
	C145.072449,492.938232 144.843994,493.365906 144.857605,493.318176 
	C122.163399,470.632599 99.412537,447.890411 76.336220,424.822876 
	C85.512985,424.822876 95.006523,424.822876 105.000061,424.822876 
z"/>
<path fill="#F29776" opacity="1.000000" stroke="none" 
	d="
M185.038574,434.833557 
	C184.082520,436.254486 183.146652,437.979065 182.170135,438.002380 
	C173.356720,438.213043 164.536194,438.125641 155.333694,438.125641 
	C153.223648,430.759552 150.105408,423.319916 143.158218,420.103027 
	C135.330048,416.478241 134.536850,411.061707 135.169693,403.889771 
	C135.604584,398.961273 135.253098,393.963409 135.253098,388.625183 
	C151.895950,388.625183 168.111542,388.625183 185.039932,388.625183 
	C185.039932,403.858765 185.039932,419.103485 185.038574,434.833557 
z"/>
<path fill="#09203D" opacity="1.000000" stroke="none" 
	d="
M125.476387,348.041321 
	C125.130630,327.038727 125.004707,306.403320 124.926247,285.767700 
	C124.912193,282.072113 127.144623,280.188263 130.593674,280.173706 
	C150.406998,280.090088 170.221115,280.090210 190.034363,280.184479 
	C193.598236,280.201416 195.555527,282.481537 195.566956,285.988922 
	C195.631012,305.636017 195.638870,325.283478 195.577225,344.930542 
	C195.564636,348.945007 193.340897,350.985016 189.252365,350.981445 
	C169.937912,350.964539 150.622772,351.045441 131.310013,350.863708 
	C129.436615,350.846100 127.577950,349.264191 125.476387,348.041321 
M185.046097,312.500122 
	C185.046097,305.385925 185.046097,298.271698 185.046097,291.030029 
	C168.260681,291.030029 152.016815,291.030029 135.547180,291.030029 
	C135.547180,307.515381 135.547180,323.740753 135.547180,340.140869 
	C152.107910,340.140869 168.353165,340.140869 185.046097,340.140869 
	C185.046097,331.087250 185.046097,322.293640 185.046097,312.500122 
z"/>
<path fill="#061C39" opacity="1.000000" stroke="none" 
	d="
M150.000916,182.552750 
	C162.829773,182.553070 175.158844,182.526627 187.487747,182.564209 
	C194.330688,182.585052 195.588348,183.872803 195.598129,190.845337 
	C195.623581,209.005585 195.631058,227.165955 195.593765,245.326172 
	C195.580292,251.883179 194.242630,253.170990 187.634628,253.178192 
	C169.307739,253.198151 150.980804,253.200821 132.653931,253.177551 
	C126.029366,253.169128 124.918167,252.010666 124.912697,245.217117 
	C124.897934,226.890228 124.893700,208.563293 124.915657,190.236420 
	C124.923294,183.866272 126.146339,182.630417 132.507156,182.565872 
	C138.171249,182.508392 143.836395,182.553101 150.000916,182.552750 
M135.215500,210.501831 
	C135.215500,221.115494 135.215500,231.729172 135.215500,242.600784 
	C152.045761,242.600784 168.280045,242.600784 184.718842,242.600784 
	C184.718842,226.012665 184.718842,209.647552 184.718842,193.309967 
	C168.133636,193.309967 151.890137,193.309967 135.215530,193.309967 
	C135.215530,198.905106 135.215530,204.203979 135.215500,210.501831 
z"/>
<path fill="#051B39" opacity="1.000000" stroke="none" 
	d="
M225.109894,114.891426 
	C227.548157,119.087410 229.821594,122.956490 232.578827,127.648903 
	C232.776642,125.735008 232.995895,124.592445 232.997589,123.449554 
	C233.020416,107.959763 233.040176,92.469841 232.993530,76.980164 
	C232.982239,73.232132 233.899292,70.088371 238.251541,70.049728 
	C242.725616,70.009987 243.478516,73.348312 243.464828,76.990234 
	C243.460449,78.156120 243.467834,79.322029 243.467850,80.487930 
	C243.468094,98.642670 243.468552,116.797409 243.467590,134.952148 
	C243.467392,138.782944 243.890686,142.681717 243.298691,146.419250 
	C242.939087,148.689499 241.508270,151.624115 239.666626,152.634827 
	C236.724075,154.249741 234.494598,151.888321 232.942581,149.203278 
	C223.622284,133.078629 214.266388,116.974556 204.914185,100.868370 
	C204.003021,99.299171 203.035736,97.762543 201.528564,95.277748 
	C201.340744,97.432396 201.152145,98.598091 201.150635,99.764023 
	C201.130722,115.087265 201.106262,130.410645 201.158722,145.733734 
	C201.171936,149.592728 200.585190,153.077850 195.785889,152.966461 
	C191.294739,152.862228 190.813736,149.470795 190.819870,145.838364 
	C190.858383,123.020081 190.856812,100.201683 190.819260,77.383400 
	C190.814056,74.217339 191.010300,71.153046 194.663925,70.173759 
	C198.285843,69.202950 200.084122,71.682915 201.670227,74.429192 
	C209.404831,87.821312 217.182602,101.188507 225.109894,114.891426 
z"/>
<path fill="#0A1F3A" opacity="1.000000" stroke="none" 
	d="
M321.599640,143.365768 
	C317.135101,138.194412 315.462799,132.414093 315.467957,126.046715 
	C315.476868,115.064049 315.353912,104.079811 315.499786,93.099075 
	C315.697968,78.179611 326.275635,67.195190 340.166138,67.240982 
	C354.088165,67.286880 364.681732,78.373955 364.814148,93.196991 
	C364.910767,104.012405 364.873230,114.829552 364.822601,125.645592 
	C364.770203,136.835892 359.995667,145.224731 349.623688,149.845886 
	C340.044098,154.114014 330.156494,151.749588 321.599640,143.365768 
M327.553894,133.542450 
	C331.844940,140.077942 337.526611,142.565659 344.032715,140.757645 
	C350.334991,139.006271 354.107635,133.596466 354.159851,125.893608 
	C354.234314,114.904755 354.261169,103.914192 354.152252,92.925903 
	C354.061432,83.762878 348.220093,77.765327 339.792816,77.897568 
	C331.751404,78.023766 326.066284,84.182617 326.003662,93.052429 
	C325.926056,104.041245 325.919708,115.031738 326.038818,126.019814 
	C326.063538,128.299484 326.772949,130.571747 327.553894,133.542450 
z"/>
<path fill="#0E223C" opacity="1.000000" stroke="none" 
	d="
M299.999939,302.899963 
	C276.169678,302.899933 252.839432,302.905243 229.509201,302.888611 
	C227.849945,302.887421 225.780777,303.308655 224.628738,302.499298 
	C222.943726,301.315552 220.876785,299.180054 220.902069,297.478851 
	C220.927231,295.785767 223.071472,293.731079 224.788620,292.591492 
	C225.976791,291.802948 228.017136,292.230591 229.676712,292.230194 
	C279.836761,292.218048 329.996796,292.219604 380.156830,292.223602 
	C381.488800,292.223694 383.213593,291.756653 384.072479,292.407867 
	C385.967896,293.845062 388.737305,295.886627 388.698792,297.627350 
	C388.659607,299.398376 385.877411,301.400513 383.906494,302.718597 
	C382.861237,303.417633 380.988647,302.897156 379.489532,302.897339 
	C353.159668,302.900970 326.829834,302.899963 299.999939,302.899963 
z"/>
<path fill="#021938" opacity="1.000000" stroke="none" 
	d="
M323.000000,205.074371 
	C291.529175,205.074371 260.558319,205.076950 229.587479,205.067261 
	C227.925400,205.066742 225.858551,205.557281 224.697449,204.766281 
	C223.013153,203.618851 220.952194,201.501862 220.967117,199.815369 
	C220.981766,198.164001 223.160782,196.200150 224.842926,195.018494 
	C225.866791,194.299255 227.748093,194.759827 229.244247,194.759613 
	C279.696747,194.752380 330.149261,194.753174 380.601746,194.755203 
	C381.766998,194.755249 382.937256,194.719452 384.096588,194.809998 
	C387.248718,195.056168 389.546417,196.963608 388.801849,199.901108 
	C388.296265,201.895645 385.912079,204.094849 383.870575,204.840485 
	C381.516144,205.700378 378.614563,205.072250 375.950592,205.072739 
	C358.467072,205.075912 340.983521,205.074371 323.000000,205.074371 
z"/>
<path fill="#021938" opacity="1.000000" stroke="none" 
	d="
M385.985565,390.517517 
	C387.145233,392.875977 388.925171,395.295776 388.425476,397.075470 
	C388.004364,398.575256 385.006317,399.500824 383.007202,400.344727 
	C382.015717,400.763275 380.705475,400.431061 379.539429,400.431091 
	C329.731781,400.431824 279.924164,400.432983 230.116516,400.430267 
	C222.992996,400.429901 220.383026,399.073242 220.723648,395.151581 
	C221.267593,388.888824 226.204269,390.026459 230.226120,390.023895 
	C280.033752,389.991852 329.841370,389.999542 379.649017,390.015594 
	C381.638672,390.016235 383.628265,390.201965 385.985565,390.517517 
z"/>
<path fill="#061C39" opacity="1.000000" stroke="none" 
	d="
M295.701050,116.823700 
	C286.430969,116.823868 277.623535,116.823868 268.167877,116.823868 
	C268.167877,126.079285 268.202698,135.012924 268.151794,143.946075 
	C268.129578,147.849487 269.069977,152.507355 263.110535,152.997925 
	C259.287598,153.312637 257.867859,150.742081 257.866974,144.143250 
	C257.864014,121.996605 257.854706,99.849953 257.872803,77.703323 
	C257.878204,71.102112 259.081268,69.935219 265.800690,69.922997 
	C276.457672,69.903603 287.115295,69.981140 297.771454,69.886803 
	C301.653076,69.852448 304.638031,71.082924 304.539825,75.293755 
	C304.447998,79.233109 301.470093,80.312004 297.847900,80.280800 
	C288.213043,80.197792 278.577026,80.252594 268.556641,80.252594 
	C268.556641,88.955360 268.556641,97.312157 268.556641,106.176010 
	C277.130341,106.176010 285.580170,106.174171 294.030029,106.177567 
	C295.694977,106.178230 297.365417,106.116814 299.023682,106.227989 
	C302.273346,106.445854 304.551788,108.130745 304.586823,111.451065 
	C304.621674,114.754211 302.439606,116.518013 299.159637,116.786079 
	C298.166595,116.867226 297.162628,116.814774 295.701050,116.823700 
z"/>
<path fill="#10233C" opacity="1.000000" stroke="none" 
	d="
M314.999939,338.903351 
	C286.211548,338.903290 257.923157,338.904480 229.634766,338.899658 
	C228.138474,338.899414 226.247101,339.410248 225.232391,338.697235 
	C223.411896,337.418060 220.957840,335.405853 220.932587,333.668518 
	C220.907578,331.948242 223.327789,329.879028 225.118820,328.569061 
	C226.116241,327.839600 228.017487,328.302094 229.511414,328.301758 
	C267.950348,328.293640 306.389282,328.295288 344.828217,328.295258 
	C345.493835,328.295258 346.159729,328.309479 346.824982,328.294128 
	C350.551025,328.208099 353.805084,329.281525 353.831116,333.538818 
	C353.856781,337.736359 350.757874,338.941223 346.949921,338.921539 
	C336.466858,338.867340 325.983307,338.903168 314.999939,338.903351 
z"/>
<path fill="#031938" opacity="1.000000" stroke="none" 
	d="
M295.000122,230.822403 
	C312.483276,230.822495 329.466644,230.864746 346.449463,230.790802 
	C350.332977,230.773895 353.874207,231.389496 353.781494,236.075348 
	C353.696869,240.352859 350.394928,241.112930 346.655151,241.107803 
	C307.027863,241.053497 267.400452,241.058578 227.773117,241.098160 
	C224.080551,241.101852 220.795181,240.504654 220.746201,236.036179 
	C220.693054,231.186569 224.242874,230.788635 228.065994,230.797577 
	C250.210587,230.849319 272.355377,230.822586 295.000122,230.822403 
z"/>
<path fill="#041B39" opacity="1.000000" stroke="none" 
	d="
M352.466980,434.779388 
	C350.105896,435.523468 348.052521,436.375397 345.997406,436.379547 
	C306.839050,436.458405 267.680511,436.439819 228.521988,436.426971 
	C227.195175,436.426544 225.518936,436.750732 224.618942,436.089172 
	C223.047440,434.933990 220.870895,433.082336 220.934494,431.608215 
	C221.013397,429.778564 222.882370,427.785248 224.436371,426.363403 
	C225.195282,425.668945 226.992386,426.045410 228.319611,426.045013 
	C267.644775,426.033417 306.969910,426.026550 346.295074,426.043701 
	C352.984619,426.046600 354.992279,428.719269 352.466980,434.779388 
z"/>
<path fill="#031A38" opacity="1.000000" stroke="none" 
	d="
M176.402664,140.942261 
	C176.359192,143.757324 176.940491,146.350327 176.092758,148.331985 
	C175.279907,150.232117 172.779266,152.906509 171.389740,152.704163 
	C169.429138,152.418640 167.718689,149.880585 166.103821,148.119797 
	C165.683640,147.661636 166.003555,146.513870 166.003479,145.682846 
	C166.001328,122.903656 165.999100,100.124466 166.009460,77.345276 
	C166.009995,76.186005 165.668320,74.607773 166.273834,73.951279 
	C167.711304,72.392769 169.635468,70.245308 171.338150,70.267181 
	C172.973434,70.288185 174.976547,72.488182 176.059967,74.208160 
	C176.827545,75.426743 176.392258,77.440109 176.393372,79.098763 
	C176.407227,99.550148 176.402557,120.001534 176.402664,140.942261 
z"/>
<path fill="#91E5FC" opacity="1.000000" stroke="none" 
	d="
M185.046097,313.000061 
	C185.046097,322.293640 185.046097,331.087250 185.046097,340.140869 
	C168.353165,340.140869 152.107910,340.140869 135.547180,340.140869 
	C135.547180,323.740753 135.547180,307.515381 135.547180,291.030029 
	C152.016815,291.030029 168.260681,291.030029 185.046097,291.030029 
	C185.046097,298.271698 185.046097,305.385925 185.046097,313.000061 
z"/>
<path fill="#F39876" opacity="1.000000" stroke="none" 
	d="
M135.215515,210.002350 
	C135.215530,204.203979 135.215530,198.905106 135.215530,193.309967 
	C151.890137,193.309967 168.133636,193.309967 184.718842,193.309967 
	C184.718842,209.647552 184.718842,226.012665 184.718842,242.600784 
	C168.280045,242.600784 152.045761,242.600784 135.215500,242.600784 
	C135.215500,231.729172 135.215500,221.115494 135.215515,210.002350 
z"/>
<path fill="#FCD380" opacity="1.000000" stroke="none" 
	d="
M327.360352,133.194946 
	C326.772949,130.571747 326.063538,128.299484 326.038818,126.019814 
	C325.919708,115.031738 325.926056,104.041245 326.003662,93.052429 
	C326.066284,84.182617 331.751404,78.023766 339.792816,77.897568 
	C348.220093,77.765327 354.061432,83.762878 354.152252,92.925903 
	C354.261169,103.914192 354.234314,114.904755 354.159851,125.893608 
	C354.107635,133.596466 350.334991,139.006271 344.032715,140.757645 
	C337.526611,142.565659 331.844940,140.077942 327.360352,133.194946 
z"/>
</svg>